<?xml version="1.0" encoding="UTF-8"?>
<svg id="Layer_1" data-name="Layer 1" xmlns="http://www.w3.org/2000/svg" viewBox="0 0 1405.222 1158.501">
  <g>
    <g>
      <path d="M584.606,886.617L31.776,1153.928c-15.893,7.685-28.776-13.538-28.776-47.403V347.115c0-33.865,12.884-67.547,28.776-75.231L584.606,4.573c15.893-7.685,28.776,13.538,28.776,47.403v759.41c0,33.865-12.884,67.547-28.776,75.231Z" style="fill: #bfdbfb;"/>
      <path d="M25.372,1158.507c-2.938,0-5.793-.842-8.473-2.523C6.475,1149.445,0,1130.494,0,1106.525V347.115C0,311.677,13.383,277.445,30.47,269.183L583.3,1.872c5.598-2.708,11.196-2.483,16.183.646,10.424,6.538,16.899,25.49,16.899,49.458v759.41c0,35.438-13.384,69.671-30.471,77.933l-1.306-2.701,1.306,2.701L33.082,1156.63c-2.59,1.252-5.181,1.877-7.71,1.877ZM591.002,5.991c-1.632,0-3.321.428-5.09,1.282L33.082,274.584c-14.68,7.099-27.082,40.313-27.082,72.531v759.41c0,21.59,5.529,39.008,14.087,44.375,3.24,2.034,6.635,2.14,10.384.327l552.83-267.312c14.68-7.098,27.082-40.312,27.082-72.53V51.975c0-21.589-5.529-39.007-14.087-44.375-1.712-1.073-3.467-1.609-5.294-1.609Z" style="fill: #0b122d;"/>
    </g>
    <g>
      <path d="M613.382,73.434L3,368.574v-21.459c0-33.865,12.884-67.547,28.776-75.231L584.606,4.573c15.893-7.685,28.776,13.538,28.776,47.403v21.459Z" style="fill: #fff;"/>
      <path d="M3,371.574c-.556,0-1.108-.154-1.594-.458-.875-.549-1.406-1.509-1.406-2.542v-21.459C0,311.677,13.383,277.445,30.47,269.183L583.3,1.872c5.598-2.708,11.196-2.483,16.183.646,10.424,6.539,16.899,25.489,16.899,49.458v21.459c0,1.15-.658,2.2-1.694,2.701L4.305,371.275c-.413.2-.86.299-1.306.299ZM591.002,5.991c-1.632,0-3.321.428-5.09,1.282L33.082,274.584c-14.68,7.099-27.082,40.313-27.082,72.531v16.676L610.382,71.553v-19.577c0-21.589-5.529-39.007-14.087-44.375-1.712-1.073-3.467-1.609-5.294-1.609ZM613.382,73.434h.01-.01Z" style="fill: #0b122d;"/>
    </g>
  </g>
  <g>
    <path d="M67.947,980.663c-28.84,58.099-23.358,115.435-22.739,166.771l479.569-231.887s28.94-29.037-3.653-61.051-453.176,126.167-453.176,126.167Z" style="fill: #0b122d;"/>
    <path d="M45.208,1150.434c-.549,0-1.097-.15-1.579-.449-.872-.54-1.408-1.488-1.421-2.515-.074-6.19-.217-12.336-.368-18.843-1.06-45.729-2.262-97.561,23.42-149.298.338-.68.921-1.207,1.632-1.474,1.052-.396,106.458-39.977,214.493-75.134,63.493-20.663,115.473-35.782,154.494-44.938,67.193-15.768,82.03-10.647,87.347-5.428,10.814,10.623,16.331,22.113,16.395,34.153.097,18.088-12.195,30.63-12.719,31.155-.238.238-.516.436-.819.583l-479.568,231.888c-.413.199-.86.299-1.306.299ZM70.112,983.056c-24.484,50.034-23.361,98.528-22.273,145.433.108,4.674.22,9.468.3,14.196l474.831-229.598c1.814-1.996,10.753-12.556,10.65-26.611-.075-10.358-4.987-20.398-14.6-29.839-3.742-3.678-19.344-7.66-81.771,6.987-38.858,9.118-90.675,24.192-154.009,44.803-101.953,33.179-201.561,70.3-213.129,74.629Z" style="fill: #0b122d;"/>
  </g>
  <g>
    <g>
      <path d="M1169.211,914.629c12.314,36.25,80.868,52.964,109.838,68.16,19.395,10.174,34.545-10.099,13.692-40.739-9.209-13.531-32.207-19.114-32.207-19.114,0,0,22.169-42.43-11.235-59.836" style="fill: #f09c9a;"/>
      <path d="M1288.824,988.432c-3.542,0-7.354-.986-11.168-2.987-7.217-3.785-17.248-7.791-27.867-12.031-32.874-13.127-73.786-29.464-83.418-57.82-.532-1.568.307-3.272,1.876-3.806,1.57-.532,3.272.308,3.806,1.876,8.743,25.739,48.231,41.508,79.961,54.178,10.768,4.3,20.938,8.361,28.43,12.291,6.481,3.398,12.484,3.031,16.062-.981,5.041-5.654,5.065-18.797-6.244-35.414-8.439-12.399-30.217-17.832-30.436-17.886-.896-.219-1.643-.838-2.023-1.678-.38-.841-.354-1.81.073-2.627.845-1.623,20.364-39.983-9.962-55.787-1.469-.766-2.039-2.577-1.273-4.047.764-1.469,2.575-2.042,4.047-1.273,9.235,4.812,15.368,11.868,18.229,20.971,4.87,15.499-1.138,32.547-4.177,39.604,7.056,2.2,22.878,8.175,30.483,19.349,14.028,20.612,11.871,35.929,5.761,42.782-3.124,3.504-7.396,5.288-12.159,5.288Z" style="fill: #0b122d;"/>
    </g>
    <g>
      <path d="M1183.441,732.685c20.329,4.239,6.497,199.706-27.866,199.447-34.364-.259-16.148-208.626,27.866-199.447Z" style="fill: #0b122d;"/>
      <path d="M1155.644,935.133h-.092c-5.312-.04-9.702-3.57-13.046-10.491-9.312-19.277-9.092-60.34-5.779-92.34,4.377-42.287,14.324-76.923,26.61-92.649,6.34-8.117,13.312-11.449,20.716-9.903,4.142.863,9.835,5.54,11.453,36.046,1.019,19.203.077,44.479-2.583,69.348-2.837,26.521-7.406,50.569-12.866,67.713-6.821,21.418-15.035,32.276-24.413,32.277ZM1180.693,735.399c-4.263,0-8.501,2.664-12.627,7.946-11.447,14.653-21.169,48.976-25.371,89.574-4.056,39.182-2.009,74.16,5.214,89.111,2.267,4.691,4.854,7.08,7.688,7.102h.045c12.481.004,25.353-38.883,31.315-94.628,2.627-24.565,3.56-49.493,2.558-68.393-1.28-24.136-5.261-30.192-6.687-30.49h0c-.712-.148-1.425-.223-2.136-.223Z" style="fill: #0b122d;"/>
    </g>
    <g>
      <path d="M1175.497,926.318c-2.324-3.054-4.249-6.321-6.285-11.689-41.698-4.53-79.892-9.515-126.241-16.219-169.162-24.467-209.57-41.244-222.85-46.759-43.122-17.905-97.043-63.831-174.385-131.851-27.6-24.274-68.251-60.026-85.015-71.283-33.193-10.261-57.015-41.503-56.313-77.977.849-44.174,37.348-79.297,81.523-78.448,31.065.597,57.082,16.672,91.524,44.237,21.612,17.297,47.033,39.654,73.947,63.325,27.537,24.218,56.01,49.26,81.352,69.694,35.299,28.462,47.462,34.001,48.733,34.539,16.193,6.724,74.21,20.235,184.388,36.171,88.379,12.783,170.455,21.434,202.812,23.085,44.126,2.251,78.072,39.847,75.821,83.972-2.207,43.26-38.388,76.737-81.387,75.912-.859-.017-1.72-.047-2.585-.091-5.492-.28-11.777-.693-18.735-1.225" style="fill: #f09c9a;"/>
      <path d="M1175.499,929.317c-.904,0-1.799-.407-2.389-1.183-2.485-3.266-4.292-6.463-6.027-10.72-39.096-4.27-76.474-9.083-124.542-16.036-169.548-24.522-210.209-41.408-223.57-46.957-43.545-18.081-97.646-64.149-175.216-132.368-26.955-23.706-67.529-59.389-84.348-70.803-34.873-10.99-58.703-44.137-57.998-80.767.426-22.166,9.458-42.84,25.433-58.212s36.976-23.604,59.146-23.178c31.918.613,58.395,16.926,93.342,44.895,21.669,17.344,47.114,39.722,74.053,63.413,27.525,24.208,55.967,49.224,81.254,69.611,35.585,28.692,47.528,33.903,48.02,34.111,16.02,6.651,73.745,20.068,183.648,35.965,88.287,12.77,170.244,21.41,202.534,23.058,22.142,1.13,42.519,10.813,57.376,27.269s22.418,37.711,21.288,59.852c-1.105,21.675-10.463,41.752-26.349,56.532-15.851,14.748-36.47,22.635-58.092,22.227-.891-.017-1.783-.048-2.68-.094-5.433-.277-11.762-.691-18.812-1.23-1.652-.126-2.889-1.568-2.763-3.22s1.569-2.899,3.22-2.763c7,.535,13.278.946,18.66,1.221.832.042,1.661.071,2.489.088.511.01,1.024.015,1.532.015,41.103,0,74.696-31.817,76.801-73.08,1.048-20.541-5.966-40.261-19.749-55.525-13.784-15.266-32.688-24.25-53.229-25.298-32.425-1.654-114.621-10.316-203.088-23.112-110.453-15.975-168.749-29.576-185.108-36.369-2.156-.912-14.585-6.849-49.466-34.974-25.387-20.469-53.879-45.526-81.432-69.76-26.904-23.661-52.298-45.994-73.859-63.252-33.938-27.16-59.496-42.998-89.707-43.58-20.562-.356-40.051,7.242-54.871,21.503-14.82,14.262-23.199,33.44-23.595,54.004-.655,34.122,21.632,64.985,54.2,75.053.279.086.544.213.787.376,16.917,11.359,58.057,47.54,85.28,71.481,77.161,67.861,130.904,113.645,173.597,131.371,13.189,5.478,53.327,22.146,222.129,46.561,48.733,7.049,86.456,11.896,126.136,16.205,1.122.122,2.08.863,2.48,1.919,1.733,4.568,3.433,7.736,5.868,10.935,1.003,1.319.748,3.201-.57,4.204-.543.414-1.182.613-1.815.613Z" style="fill: #0b122d;"/>
    </g>
    <g>
      <path d="M1083.213,924.196c-137.457-18.355-228.555-36.548-270.763-54.073-46.077-19.132-98.712-63.881-179.923-135.303-25.955-22.827-63.936-56.231-80.841-68.212-39.858-13.779-68.13-52.007-67.275-96.45,1.061-55.218,46.685-99.121,101.903-98.06,40.583.78,72.18,23.442,103.636,48.619,21.975,17.587,47.565,40.093,74.658,63.921,26.567,23.365,54.037,47.524,78.515,67.377,32.302,26.198,44.424,32.591,46.356,33.535,14.302,5.769,78.048,21.423,220.204,40.406,54.743,7.31,7.767,201.497-26.471,198.241Z" style="fill: #fdf151;"/>
      <path d="M1084.096,927.238c-.389,0-.775-.019-1.167-.056-.037-.003-.075-.008-.113-.013-137.717-18.391-229.068-36.651-271.516-54.276-46.504-19.309-99.311-64.193-180.754-135.821-25.243-22.201-63.299-55.671-80.25-67.772-42.077-14.741-69.742-54.551-68.885-99.2,1.078-56.111,47.072-101.021,102.952-101.021.67,0,1.337.006,2.009.02,41.527.798,73.578,23.764,105.453,49.276,22.021,17.624,47.627,40.144,74.736,63.985,26.584,23.38,54.025,47.514,78.452,67.324,31.897,25.869,44.022,32.293,45.69,33.124,14.182,5.673,78.071,21.304,219.377,40.174,22.342,2.983,31.835,33.754,26.045,84.423-3.138,27.455-10.679,57.705-20.172,80.919-7.326,17.914-18.721,38.914-31.858,38.914ZM1083.548,921.215c7.444.641,17.716-12.818,26.853-35.161,9.297-22.734,16.686-52.39,19.764-79.329,5.287-46.262-2.519-75.344-20.878-77.795-142.234-18.994-206.708-34.861-220.928-40.598-.065-.026-.13-.056-.194-.086-2.151-1.051-14.525-7.621-46.93-33.901-24.52-19.886-52.008-44.061-78.59-67.439-27.102-23.834-52.656-46.309-74.569-63.847-31.035-24.84-62.176-47.199-101.818-47.962-.63-.012-1.265-.018-1.892-.018-52.63,0-95.939,42.29-96.956,95.136-.81,42.186,25.415,79.783,65.257,93.558.269.093.522.223.754.388,17.033,12.07,55.579,45.971,81.086,68.403,80.982,71.224,133.446,115.835,179.095,134.789,41.96,17.422,132.775,35.543,269.947,53.862Z" style="fill: #0b122d;"/>
    </g>
    <g>
      <g>
        <path d="M1268.686,763.143c27.234.524,51.161,9.156,64.933,14.857,22.754,9.419,44.985,25.36,53.057,38.023,13.887,21.784-14.251,39.208-38.828,22.732-21.223-14.228-51.311-17.727-74.479-20.849" style="fill: #f09c9a;"/>
        <path d="M1368.011,848.293c-6.852,0-14.438-2.088-21.834-7.046-19.707-13.213-47.651-16.949-70.105-19.951l-3.104-.417c-1.643-.221-2.794-1.731-2.572-3.373.221-1.643,1.739-2.794,3.373-2.572l3.099.415c23.07,3.085,51.783,6.924,72.651,20.914,13.203,8.854,27.258,6.86,33.776.488,5.104-4.988,5.415-11.956.852-19.115-7.765-12.18-29.497-27.684-51.676-36.864-22.844-9.457-43.728-14.242-63.843-14.629-1.656-.031-2.974-1.4-2.941-3.057s1.386-2.983,3.057-2.941c20.878.4,42.474,5.335,66.022,15.084,23.19,9.599,46.086,26.078,54.439,39.183,6.046,9.483,5.389,19.688-1.717,26.632-4.526,4.422-11.504,7.25-19.478,7.25Z" style="fill: #0b122d;"/>
      </g>
      <g>
        <path d="M1265.247,801.471c17.399.315,38.037,4.771,60.446,11.417,22.446,6.657,57.657,26.629,69.606,36.726,20.32,17.169-7.465,47.319-39.762,34.426-22.774-9.091-87.305-16.674-87.305-16.674" style="fill: #f09c9a;"/>
        <path d="M1371.283,890.178c-5.336,0-11.025-1.022-16.857-3.351-22.146-8.84-85.901-16.405-86.543-16.48-1.646-.193-2.822-1.685-2.629-3.33s1.688-2.817,3.33-2.629c2.65.312,65.187,7.734,88.066,16.867,17.918,7.152,34.071.206,40.175-9.958,4.168-6.942,2.907-14.011-3.461-19.392-11.349-9.588-45.886-29.428-68.523-36.142-24.683-7.319-44.193-11.013-59.648-11.293-1.656-.029-2.975-1.396-2.944-3.054.029-1.656,1.392-2.992,3.054-2.944,16.003.289,36.036,4.063,61.245,11.539,23.325,6.918,58.964,27.403,70.69,37.311,8.585,7.255,10.398,17.625,4.731,27.063-5.328,8.874-16.81,15.791-30.686,15.792Z" style="fill: #0b122d;"/>
      </g>
      <g>
        <path d="M1256.951,857.693c21.333,1.499,38.5,3.262,66.33,9.686,24.913,5.751,43.535,10.516,54.113,14.587,29.98,11.536,13.045,44.741-24.438,43.194-23.678-.977-77.336-.762-101.801-2.78" style="fill: #f09c9a;"/>
        <path d="M1355.467,928.212c-.867,0-1.744-.018-2.635-.055-8.974-.37-22.457-.571-36.731-.784-23.408-.349-49.939-.744-65.191-2.002-1.651-.137-2.88-1.586-2.744-3.236.137-1.651,1.585-2.883,3.236-2.744,15.051,1.241,41.476,1.636,64.788,1.983,14.315.213,27.837.415,36.891.789.818.033,1.63.05,2.426.05,19.455.002,31.963-9.872,33.976-19.587,1.561-7.53-3.238-14.04-13.165-17.86-9.402-3.618-25.466-7.943-53.711-14.464-28.778-6.643-46.148-8.23-65.865-9.616-1.653-.115-2.898-1.55-2.782-3.202.115-1.652,1.539-2.909,3.202-2.782,19.983,1.403,37.591,3.014,66.795,9.755,28.533,6.587,44.838,10.985,54.516,14.71,12.758,4.909,19.07,14.135,16.886,24.678-2.5,12.068-17.237,24.368-39.89,24.368Z" style="fill: #0b122d;"/>
      </g>
    </g>
    <g>
      <path d="M1095.251,710.842c24.666,5.309,69.386,17.582,88.19,21.843-31.372,2.522-54.267,164.047-27.866,199.447,0,0-71.069-.21-95.79-1.841-36.889-2.435-3.032-227.736,35.466-219.449Z" style="fill: #fff;"/>
      <path d="M1155.575,935.133h-.009c-.712-.002-71.447-.229-95.979-1.849-5.398-.356-9.695-4.135-12.771-11.23-9.098-20.99-6.378-67.61-.799-104.241,5.598-36.753,17.063-82.713,32.458-101.482,5.627-6.862,11.486-9.697,17.406-8.42,14.186,3.054,35.123,8.438,53.596,13.188,13.697,3.523,26.635,6.851,34.627,8.661,1.445.327,2.435,1.661,2.329,3.14s-1.274,2.658-2.752,2.776c-5.035.405-10.714,7.048-15.988,18.706-20.532,45.377-29.464,149.474-9.713,175.957.679.911.785,2.128.274,3.144-.51,1.012-1.547,1.65-2.68,1.65ZM1093.202,713.625c-3.152,0-6.538,2.183-10.087,6.51-12.235,14.917-24.177,52.691-31.166,98.581-6.853,44.993-6.706,84.619.373,100.952,2.109,4.866,4.687,7.434,7.66,7.63,20.385,1.346,73.163,1.723,90.211,1.812-10.916-21.13-9.559-62.43-8.363-80.213,2.526-37.603,10.342-74.767,20.396-96.988,3.86-8.531,7.962-14.637,12.261-18.269-7.483-1.838-16.804-4.235-26.504-6.729-18.419-4.737-39.295-10.106-53.363-13.135-.468-.101-.94-.15-1.418-.15Z" style="fill: #0b122d;"/>
    </g>
  </g>
  <g>
    <path d="M632.441,482.523c-50.604-23.742-114.689-31.827-141.904-41.329,0,0-76.803-16.652-115.054-30.807-38.251-14.155-223.686-35.577-283.98,11.555-41.566,32.492,25.545,134.656,2.231,236.236-23.313,101.58-87.309,316.452-19.953,349.132,45.518,22.085,146.368,24.683,242.802,8.905l218.454-105.63c3.271-7.051,5.35-14.414,6.09-22.087,7.236-75.045,48.289-180.96,89.215-212.174" style="fill: #fdf151;"/>
    <path d="M195.866,1029.284c-6.754,0-13.387-.107-19.877-.325-45.295-1.516-81.091-8.069-103.518-18.95-27.167-13.182-36.702-54.053-29.148-124.949,6.3-59.128,23.214-127.937,36.805-183.226,3.949-16.063,7.679-31.235,10.684-44.327,11.254-49.033.912-99.438-7.398-139.938-9.198-44.831-16.463-80.24,6.243-97.99,33.561-26.234,101.274-30.463,152.167-29.396,57.436,1.207,114.64,9.967,134.701,17.391,37.617,13.92,113.884,30.522,114.649,30.688.12.025.237.059.354.1,9.169,3.201,22.824,6.291,38.636,9.868,31.188,7.056,70.003,15.838,103.553,31.578,1.5.704,2.146,2.49,1.441,3.99s-2.488,2.146-3.99,1.441c-32.96-15.464-71.422-24.166-102.328-31.157-15.892-3.596-29.631-6.704-39.116-9.996-4.182-.913-78.166-17.152-115.28-30.886-19.606-7.255-75.934-15.825-132.746-17.019-70.555-1.486-123.246,8.504-148.345,28.124-19.776,15.46-12.841,49.263-4.061,92.058,8.427,41.069,18.914,92.182,7.368,142.485-3.015,13.137-6.75,28.331-10.704,44.418-13.548,55.113-30.409,123.704-36.665,182.428-7.152,67.13,1.528,107.14,25.801,118.916,43.566,21.138,142.449,24.711,240.58,8.714l217.085-104.968c2.916-6.545,4.727-13.316,5.386-20.146,3.59-37.227,15.319-82.195,32.184-123.373,17.862-43.616,38.531-75.898,58.198-90.899,1.315-1.003,3.199-.753,4.205.566,1.005,1.317.751,3.2-.566,4.205-41.21,31.432-81.17,138.738-88.048,210.077-.757,7.843-2.895,15.602-6.354,23.061-.292.628-.792,1.137-1.416,1.438l-218.454,105.63c-.26.125-.536.213-.821.26-40.383,6.607-82.682,10.108-121.202,10.108Z" style="fill: #0b122d;"/>
  </g>
  <g>
    <path d="M143.827,628.764c-38.116,44.318-76.231,138.246-76.231,138.246,12.816-51.677,23.888-99.341,30.403-136.515l45.828-1.73Z" style="fill: #0b122d;"/>
    <path d="M67.596,770.011c-.308,0-.62-.048-.928-.147-1.497-.487-2.363-2.048-1.984-3.575,15.051-60.692,24.698-104.006,30.359-136.312.244-1.394,1.429-2.427,2.842-2.48l45.828-1.73c1.192-.033,2.298.621,2.815,1.695.519,1.075.351,2.354-.428,3.259-37.362,43.443-75.346,136.483-75.725,137.418-.471,1.159-1.59,1.873-2.78,1.873ZM100.531,633.4c-4.603,25.814-11.669,58.461-21.881,100.999,13.743-29.753,35.979-73.945,58.602-102.386l-36.721,1.387Z" style="fill: #0b122d;"/>
  </g>
  <g>
    <path d="M484.154,444.47s-37.165,53.284-50.622,53.093c-13.457-.191-56.806-67.006-56.806-67.006l12.364-95.469,107.428,13.912-12.364,95.469Z" style="fill: #f09c9a;"/>
    <path d="M433.619,500.563c-.044,0-.087,0-.131,0-4.243-.061-12.572-3.73-35.808-34.776-12.437-16.615-23.363-33.428-23.472-33.596-.388-.597-.55-1.312-.459-2.019l12.363-95.469c.103-.789.514-1.505,1.145-1.991.63-.485,1.424-.701,2.217-.599l107.429,13.913c1.643.213,2.802,1.717,2.59,3.36l-12.363,95.469c-.062.479-.239.935-.515,1.33-.094.135-9.487,13.574-20.412,26.812-20.284,24.579-28.321,27.566-32.584,27.566ZM379.842,429.843c2.442,3.719,11.993,18.122,22.657,32.37,22.4,29.926,29.447,32.327,31.073,32.35.016,0,.032,0,.048,0,8.152,0,32.587-29.71,47.652-51.209l11.884-91.764-101.479-13.142-11.836,91.394ZM484.154,444.47h.01-.01Z" style="fill: #0b122d;"/>
  </g>
  <path d="M437.744,528.487c-3.988,0-8.038-.236-12.141-.712-27.914-3.236-55.641-17.6-76.07-39.407-15.88-16.951-34.856-46.196-35.085-89.257-.009-1.656,1.327-3.007,2.984-3.016h.016c1.649,0,2.991,1.333,3,2.984.366,69.188,54.104,116.736,105.846,122.735,36.758,4.257,81.15-12.53,95.565-72.434.389-1.611,2.015-2.597,3.619-2.215,1.61.388,2.603,2.008,2.215,3.619-6.686,27.779-20.467,49.47-39.855,62.727-14.457,9.884-31.589,14.975-50.094,14.975Z" style="fill: #0b122d;"/>
  <g>
    <path d="M490.964,409.886l-4.401,30.432c-15.504-6.954-27.969-17.938-36.221-34.51l40.621,4.079Z" style="fill: #0b122d;"/>
    <path d="M486.563,443.317c-.418,0-.836-.087-1.228-.263-17.152-7.693-29.478-19.44-37.679-35.911-.487-.978-.403-2.143.217-3.042.621-.899,1.688-1.384,2.769-1.28l40.621,4.079c.814.082,1.56.493,2.063,1.138s.723,1.467.605,2.277l-4.4,30.432c-.135.932-.698,1.745-1.523,2.199-.448.247-.946.371-1.445.371ZM455.683,409.358c6.824,11.539,16.206,20.261,28.494,26.497l3.368-23.298-31.862-3.199Z" style="fill: #0b122d;"/>
  </g>
  <g>
    <path d="M491.498,387.753c6.268,4.648,24.605,31.472,29.624,45.542,11.486,32.194,7.219,87.476-4.185,121.023,0,0-42.064-60.503-55.842-59.904-13.778.599-28.754,2.995-28.754,2.995,32.414-34.579,58.196-56.215,59.157-109.656Z" style="fill: #fff;"/>
    <path d="M516.936,557.317c-.973,0-1.896-.474-2.462-1.287-.104-.151-10.608-15.229-22.639-30.021-21.807-26.815-28.951-28.677-30.609-28.599-13.438.584-28.263,2.937-28.411,2.96-1.264.203-2.521-.422-3.123-1.555s-.417-2.523.461-3.459c3.044-3.248,6.03-6.382,8.943-9.438,28.188-29.583,48.553-50.958,49.402-98.219.021-1.124.667-2.142,1.675-2.638,1.008-.496,2.21-.388,3.112.282,7.02,5.206,25.594,32.737,30.662,46.943,11.907,33.373,7.106,89.828-4.17,122.996-.365,1.071-1.302,1.847-2.423,2.005-.14.02-.279.029-.419.029ZM461.329,491.409c4.447,0,13.009,3.57,35.182,30.839,7.964,9.794,15.262,19.704,19.384,25.427,9.639-32.654,13.227-83.034,2.403-113.372-3.942-11.049-16.43-30.228-24.078-39.451-2.778,44.825-24.113,67.22-50.779,95.206-1.006,1.056-2.021,2.12-3.043,3.196,5.596-.704,13.209-1.518,20.568-1.837.117-.005.239-.008.363-.008Z" style="fill: #0b122d;"/>
  </g>
  <g>
    <path d="M385.725,370.876c-16.253,1.405-43.21,21.174-46.804,33.754-3.594,12.58-19.124,103.561-13.808,144.296,0,0,64.954-62.749,77.664-57.918,16.839,6.4,29.564,6.4,29.564,6.4-29.067-35.642-50.824-73.601-46.616-126.532Z" style="fill: #fff;"/>
    <path d="M325.113,551.927c-.332,0-.667-.055-.99-.168-1.07-.374-1.838-1.319-1.984-2.443-5.441-41.692,10.485-133.565,13.897-145.51,3.986-13.948,32.166-34.425,49.431-35.918.882-.074,1.747.239,2.373.86s.946,1.487.876,2.366c-4.332,54.497,19.524,91.995,45.951,124.398.731.898.882,2.137.385,3.184-.497,1.046-1.552,1.713-2.71,1.713-.542,0-13.474-.075-30.63-6.596-.645-.242-7.249-1.578-40.575,26.616-17.55,14.847-33.777,30.498-33.939,30.654-.568.55-1.319.843-2.084.843ZM382.475,374.419c-15.854,3.525-37.797,20.982-40.67,31.035-3.205,11.219-17.631,93.954-14.328,137.088,6.073-5.717,17.601-16.385,29.764-26.676,32.802-27.754,42.137-29.36,46.602-27.662,8.88,3.375,16.617,4.915,21.781,5.617-14.743-18.75-24.929-35.419-31.839-52.044-8.962-21.562-12.673-43.633-11.31-67.358Z" style="fill: #0b122d;"/>
  </g>
  <g>
    <g>
      <path d="M391.772,360.359c-25.994-28.256-45.337-63.977-55.902-106.394-29.399-118.027,105.373-262.158,229.395-194.103,90.831,49.842,138.261,196.874,120.133,275.786-16.904,73.584-96.356,110.74-172.448,93.457-23.689-5.38-45.888-13.849-66.123-25.235" style="fill: #f09c9a;"/>
      <path d="M550.411,436.343c-12.629,0-25.424-1.427-38.124-4.312-23.956-5.441-46.475-14.037-66.93-25.547-1.444-.812-1.956-2.642-1.144-4.085.812-1.444,2.641-1.957,4.085-1.144,19.951,11.226,41.927,19.611,65.316,24.924,78.826,17.903,152.998-22.158,168.859-91.204,8.871-38.615,1.562-94.948-19.072-147.017-23.129-58.364-58.494-102.922-99.58-125.467-50.184-27.538-106.953-21.771-155.745,15.825-55.753,42.961-84.249,114.892-69.296,174.923,10.218,41.023,28.79,76.38,55.199,105.088,1.122,1.22,1.042,3.117-.177,4.239-1.221,1.123-3.118,1.042-4.239-.177-27.097-29.456-46.142-65.691-56.605-107.7-15.511-62.273,13.873-136.755,71.456-181.125,23.462-18.079,49.911-29.498,76.49-33.022,29.601-3.925,58.468,1.689,85.804,16.69,42.308,23.215,78.629,68.856,102.271,128.516,21.059,53.139,28.471,110.835,19.342,150.572-8.206,35.721-31.493,65.125-65.571,82.794-21.987,11.401-46.822,17.229-72.34,17.229Z" style="fill: #0b122d;"/>
    </g>
    <g>
      <path d="M306.811,191.766c-4.23,50.617,16.514,96.162,24.935,108.578,17.417,25.682,55.641,14.787,68.801,3.177,9.198-8.115-12.723-86.952-17.472-117.183l-76.264,5.428Z" style="fill: #0b122d;"/>
      <path d="M363.771,319.062c-2.199,0-4.396-.129-6.571-.405-11.922-1.51-21.583-7.26-27.937-16.63-10.073-14.854-29.546-61.411-25.441-110.512.123-1.474,1.302-2.637,2.776-2.742l76.264-5.428c1.56-.105,2.935.988,3.177,2.527,1.382,8.795,4.294,22.032,7.378,36.045,10.229,46.484,16.39,77.434,9.114,83.852-7.834,6.913-23.316,13.292-38.76,13.292ZM309.608,194.575c-3.109,46.55,15.109,90.061,24.621,104.086,5.435,8.014,13.417,12.739,23.725,14.044,15.143,1.918,32.532-4.309,40.608-11.434.512-.452,2.881-3.879-.748-27.074-2.371-15.152-6.561-34.191-10.257-50.989-2.805-12.743-5.468-24.846-6.996-33.683l-70.953,5.05Z" style="fill: #0b122d;"/>
    </g>
    <g>
      <path d="M408.432,245.262c-1.087-14.274-5.259-45.283-1.203-61.269,24.663-97.198,168.855-132.287,218.678-70.1-2.323-43.189-89.802-111.884-206.406-65.455-116.186,46.262-141.748,116.482-126.009,214.648,8.678,2.691,18.567,3.85,29.308,3.663-4.275-22.994-2.957-46.345,1.265-69.881,5.211,25.725,13.345,48.729,26.81,66.775,18.311-3.515,37.934-9.864,57.558-18.38Z" style="fill: #5c79f7;"/>
      <path d="M320.589,269.767c-10.407,0-19.812-1.282-27.986-3.817-1.089-.338-1.893-1.264-2.073-2.39-8.629-53.815-4.229-94.701,13.846-128.671,19.916-37.43,57.211-66.62,114.016-89.238,84.812-33.771,144.867-4.86,166.751,9.138,25.929,16.585,42.696,39.171,43.761,58.943.069,1.301-.709,2.499-1.927,2.964-1.221.466-2.597.089-3.41-.927-20.702-25.84-60.852-35.978-104.771-26.455-54.285,11.768-96.937,49.221-108.658,95.417-3.198,12.601-.997,35.759.459,51.083.338,3.552.629,6.62.827,9.221.098,1.274-.624,2.471-1.797,2.979-20.305,8.811-39.882,15.061-58.188,18.575-1.129.216-2.283-.231-2.97-1.152-10.219-13.696-18.05-30.995-23.77-52.583-2.323,19.551-1.97,37.116,1.048,53.346.161.868-.067,1.762-.625,2.446-.559.684-1.39,1.086-2.271,1.102-.759.013-1.514.02-2.262.02ZM296.16,260.744c6.823,1.908,14.563,2.919,23.075,3.016-3.254-20.171-2.635-42.272,1.876-67.422.255-1.417,1.479-2.454,2.92-2.47h.033c1.426,0,2.656,1.004,2.94,2.404,5.503,27.171,13.741,48.152,25.163,64.059,16.747-3.373,34.591-9.076,53.1-16.973-.177-2.062-.398-4.39-.644-6.976-1.496-15.737-3.756-39.518-.303-53.127,6.401-25.227,21.25-48.07,42.939-66.058,19.773-16.399,44.07-28.068,70.265-33.747,41.503-9,79.987-1.055,103.418,20.716-5.078-15.242-19.421-31.777-39.034-44.322-21.104-13.499-79.068-41.359-161.299-8.619-104.916,41.775-141.079,102.547-124.45,209.519Z" style="fill: #0b122d;"/>
    </g>
    <g>
      <path d="M402.717,304.258c-11.752-17.549-34.606-24.988-54.883-16.626-23.125,9.537-34.141,36.015-24.604,59.141,9.537,23.125,36.015,34.141,59.141,24.604,8.162-3.366,14.815-8.842,19.589-15.536" style="fill: #f09c9a;"/>
      <path d="M365.1,377.824c-6.286,0-12.569-1.244-18.549-3.731-11.91-4.955-21.178-14.251-26.096-26.177s-4.897-25.052.058-36.962c4.954-11.91,14.251-21.178,26.177-26.096,21.18-8.736,45.792-1.278,58.52,17.729.922,1.377.553,3.24-.824,4.162-1.379.922-3.241.552-4.162-.824-11.144-16.644-32.697-23.17-51.246-15.521-10.443,4.307-18.585,12.423-22.925,22.854-4.339,10.43-4.356,21.926-.05,32.37,4.307,10.443,12.423,18.585,22.854,22.924,10.431,4.339,21.928,4.356,32.37.05,7.364-3.037,13.689-8.053,18.29-14.504.962-1.348,2.835-1.664,4.185-.701,1.349.962,1.662,2.835.7,4.184-5.256,7.372-12.479,13.101-20.888,16.568-5.938,2.449-12.177,3.674-18.413,3.674Z" style="fill: #0b122d;"/>
    </g>
    <g>
      <path d="M501.891,250.393c11.48-8.493,23.997-13.424,39.365-18.679,9.853-3.37,7.899-14.849-7.449-18.103-14.425-3.058-39.413,8.095-45.355,22.07-6.199,14.58,4.069,21.644,13.44,14.712Z" style="fill: #5c79f7;"/>
      <path d="M494.578,256.073c-2.456,0-4.771-.747-6.686-2.258-3.77-2.974-6.327-9.607-2.202-19.308,6.738-15.845,33.602-27.04,48.738-23.831,9.264,1.963,15.492,7.241,15.866,13.444.28,4.637-2.812,8.634-8.068,10.431-16.346,5.59-27.894,10.368-38.551,18.253h0c-2.933,2.169-6.119,3.269-9.098,3.269ZM501.891,250.393h.01-.01ZM528.655,216.111c-13.118,0-32.546,9.229-37.443,20.744-2.802,6.59-1.633,10.649.396,12.25,2.052,1.619,5.388,1.178,8.499-1.123,11.282-8.347,23.275-13.327,40.178-19.106,2.669-.913,4.135-2.514,4.021-4.393-.164-2.722-3.715-6.367-11.121-7.937-1.387-.294-2.911-.435-4.529-.435Z" style="fill: #0b122d;"/>
    </g>
    <g>
      <path d="M605.37,212.566c13.816-3.614,27.268-3.536,43.488-2.699,10.4.537,12.855-10.846-.182-19.574-12.253-8.203-39.596-7.144-50.31,3.619-11.177,11.228-4.272,21.605,7.004,18.655Z" style="fill: #5c79f7;"/>
      <path d="M601.632,216.067c-4.583,0-8.483-1.972-10.529-5.531-2.394-4.162-2.3-11.271,5.137-18.742,12.146-12.202,41.249-12.603,54.104-3.995,7.869,5.268,11.688,12.483,9.728,18.381-1.464,4.408-5.828,6.971-11.368,6.682-17.255-.889-29.75-.749-42.574,2.606h0c-1.541.403-3.053.599-4.496.599ZM605.37,212.566h.01-.01ZM626.394,187.901c-10.006,0-20.404,2.604-25.902,8.126-5.052,5.075-5.476,9.278-4.188,11.519,1.302,2.266,4.561,3.099,8.307,2.118,13.573-3.551,26.56-3.714,44.401-2.793,2.815.146,4.772-.795,5.366-2.582.859-2.588-1.081-7.292-7.372-11.504-4.781-3.201-12.57-4.884-20.612-4.884Z" style="fill: #0b122d;"/>
    </g>
    <ellipse cx="535.43" cy="263.709" rx="9.294" ry="11.065" transform="translate(-49.257 143.839) rotate(-14.635)" style="fill: #0b122d;"/>
    <ellipse cx="630.342" cy="241.067" rx="9.294" ry="11.065" transform="translate(-40.457 167.085) rotate(-14.635)" style="fill: #0b122d;"/>
    <path d="M541.787,348.316c-3.424,0-6.832-.453-10.088-1.377-7.846-2.227-13.864-6.897-17.406-13.506-.782-1.46-.232-3.279,1.228-4.061,1.462-.783,3.278-.232,4.062,1.227,3.48,6.496,9.401,9.332,13.756,10.568,7.996,2.271,17.484,1.06,24.754-3.158,1.436-.832,3.269-.344,4.101,1.089s.344,3.269-1.089,4.1c-5.805,3.368-12.59,5.118-19.316,5.118Z" style="fill: #0b122d;"/>
    <g>
      <path d="M375.48,343.456c-.487,0-.981-.119-1.439-.37l-26.32-14.429c-1.452-.797-1.984-2.62-1.188-4.073.797-1.453,2.618-1.984,4.073-1.188l26.32,14.429c1.452.797,1.984,2.62,1.188,4.073-.546.995-1.573,1.558-2.634,1.558Z" style="fill: #0b122d;"/>
      <path d="M355.508,351.693c-.397,0-.801-.08-1.188-.248-1.521-.658-2.221-2.423-1.563-3.944l13.309-30.772c.658-1.521,2.423-2.222,3.944-1.562,1.521.658,2.221,2.423,1.563,3.944l-13.309,30.772c-.49,1.133-1.595,1.81-2.756,1.81Z" style="fill: #0b122d;"/>
    </g>
    <g>
      <path d="M666.848,135.595c-19.733-64.492-83.025-93.147-167.15-68.616-95.765,27.925-125.259,92.082-115.09,150.505,76.98-9.804,152.744-26.535,212.873-48.937.388-22.034-7.049-42.143-19.697-60.971,27,10.902,47.282,25.336,56.402,45.638,11.9-5.602,22.843-11.479,32.663-17.618Z" style="fill: #5c79f7;"/>
      <path d="M384.604,220.484c-1.438,0-2.7-1.034-2.952-2.486-5.586-32.09.738-62.824,18.287-88.879,20.119-29.871,53.4-51.747,98.918-65.02,41.503-12.102,79.445-11.743,109.729,1.041,29.93,12.633,51.067,36.693,61.13,69.577.396,1.298-.128,2.702-1.279,3.422-9.735,6.086-20.829,12.071-32.975,17.788-.727.342-1.562.378-2.318.099-.755-.279-1.365-.85-1.695-1.584-7.252-16.142-22.348-29.38-46.019-40.302,10.442,18.002,15.377,35.9,15.05,54.459-.022,1.233-.797,2.328-1.952,2.758-57.605,21.462-133.442,38.9-213.542,49.102-.128.016-.256.024-.382.024ZM556.726,61.2c-17.37,0-36.218,2.836-56.189,8.66-81.433,23.746-123.632,77.553-113.437,144.279,77.695-10.076,151.142-26.963,207.394-47.685-.091-19.391-6.384-38.125-19.201-57.206-.735-1.094-.67-2.54.16-3.563.831-1.022,2.234-1.385,3.453-.892,28.82,11.637,47.406,26.192,56.692,44.426,10.075-4.839,19.367-9.856,27.686-14.947-15.416-47.356-54.269-73.072-106.558-73.072Z" style="fill: #0b122d;"/>
    </g>
    <g>
      <path d="M521.174,314.573c-6.448,0-12.922-1.064-19.204-3.206-15.007-5.116-27.122-15.769-34.116-29.998h0c-6.994-14.229-8.028-30.329-2.912-45.335,5.116-15.006,15.77-27.123,29.998-34.116,29.372-14.438,65.014-2.287,79.451,27.085,6.994,14.229,8.028,30.329,2.912,45.335-5.116,15.006-15.77,27.122-29.998,34.116-8.271,4.066-17.177,6.118-26.131,6.118ZM473.239,278.723c6.287,12.79,17.178,22.366,30.668,26.965,13.489,4.599,27.961,3.669,40.752-2.618,12.79-6.287,22.367-17.178,26.966-30.667,4.599-13.489,3.669-27.962-2.618-40.752-12.978-26.403-45.019-37.322-71.42-24.347-12.79,6.287-22.367,17.178-26.966,30.667-4.598,13.488-3.668,27.962,2.618,40.752h0Z" style="fill: #0b122d;"/>
      <path d="M646.776,278.074c-21.932,0-43.054-12.192-53.363-33.167h0c-6.994-14.229-8.028-30.329-2.912-45.335s15.77-27.123,29.998-34.116c14.228-6.994,30.329-8.027,45.335-2.912,15.007,5.116,27.122,15.77,34.116,29.998s8.028,30.329,2.912,45.335c-5.116,15.006-15.77,27.122-29.998,34.116-8.397,4.127-17.308,6.082-26.088,6.082ZM598.797,242.26c12.979,26.404,45.021,37.325,71.42,24.347,12.79-6.287,22.367-17.178,26.966-30.667,4.599-13.489,3.669-27.962-2.618-40.752-6.287-12.79-17.178-22.367-30.667-26.965-13.49-4.599-27.964-3.668-40.753,2.618-12.79,6.287-22.367,17.178-26.966,30.667-4.598,13.489-3.668,27.963,2.618,40.753h0Z" style="fill: #0b122d;"/>
      <path d="M575.076,241.908c-1.309,0-2.512-.864-2.885-2.186-.45-1.595.478-3.252,2.072-3.702l17.36-4.9c1.586-.447,3.251.477,3.701,2.072.45,1.595-.478,3.252-2.072,3.702l-17.36,4.9c-.271.077-.546.114-.816.114Z" style="fill: #0b122d;"/>
      <path d="M353.609,287.439c-1.485,0-2.775-1.103-2.972-2.616-.212-1.643.947-3.147,2.591-3.36l113.084-14.628c1.655-.215,3.147.947,3.36,2.59.212,1.643-.947,3.147-2.591,3.36l-113.084,14.628c-.131.017-.261.025-.389.025Z" style="fill: #0b122d;"/>
    </g>
  </g>
  <g>
    <g>
      <path d="M189.275,919.001c18.928,19.541-77.608,172.48-113.796,167.646-36.188-4.834,75.348-207.338,113.796-167.646Z" style="fill: #0b122d;"/>
      <path d="M77.173,1089.757c-.71,0-1.405-.044-2.092-.136-2.916-.39-8.011-2.24-9.371-10.26-3.136-18.493,14.829-58.125,31.166-86.444,22.704-39.356,47.684-68.637,66.82-78.327,14.131-7.155,22.88-2.686,27.733,2.324,8.722,9.004-1.892,35.573-12.331,56.276-13.325,26.426-32.533,55.672-51.382,78.235-14.815,17.734-35.306,38.329-50.544,38.331ZM177.361,916.843c-3.236,0-6.874,1.034-10.954,3.1-17.867,9.048-42.519,38.159-64.333,75.973-20.536,35.6-32.772,68.731-30.447,82.443.729,4.306,2.654,5.103,4.25,5.315.464.062.942.093,1.434.093,21.904.003,70.007-60.874,96.432-113.277,15.472-30.685,16.877-45.789,13.378-49.401-2.742-2.831-5.976-4.245-9.759-4.245Z" style="fill: #0b122d;"/>
    </g>
    <g>
      <g>
        <path d="M235.305,947.144c-63.098-20.726-125.368-52.265-170.846-86.532-42.215-31.808-57.575-56.259-61.459-66.815v218.936c53.579,34.809,116.935,64.926,182.374,86.421,9.444,3.102,19.045,4.35,28.421,3.942,5.162-.225,10.252-.956,15.209-2.15l41.411-24.959c6.941-7.883,12.444-17.262,15.93-27.873,13.788-41.976-9.063-87.182-51.039-100.97Z" style="fill: #f09c9a;"/>
        <path d="M210.335,1106.172c-8.771,0-17.464-1.397-25.897-4.167-65.544-21.53-128.85-51.53-183.072-86.756-.852-.554-1.365-1.5-1.365-2.516v-218.936c0-1.454,1.043-2.698,2.474-2.953,1.429-.259,2.839.553,3.342,1.917,1.692,4.6,12.56,29.371,60.45,65.454,45.225,34.078,107.179,65.452,169.977,86.078h0c43.48,14.283,67.235,61.276,52.953,104.757-3.528,10.74-9.089,20.47-16.528,28.919-.203.23-.44.429-.703.587l-41.411,24.959c-.263.158-.548.275-.846.348-5.189,1.25-10.499,2.001-15.781,2.23-1.198.052-2.396.078-3.591.078ZM6,1011.102c53.491,34.566,115.799,64.011,180.311,85.201,8.892,2.921,18.1,4.196,27.354,3.796,4.746-.207,9.518-.867,14.19-1.964l40.61-24.477c6.748-7.756,11.804-16.663,15.028-26.481,6.419-19.54,4.844-40.409-4.435-58.766-9.279-18.355-25.15-31.999-44.69-38.417-63.397-20.824-125.984-52.529-171.715-86.987-33.176-24.997-49.132-44.738-56.654-56.808v204.902Z" style="fill: #0b122d;"/>
      </g>
      <g>
        <path d="M91.503,421.942c-31.013,22.074-60.816,45.913-88.503,70.648v543.481c8.685,5.253,17.642,10.41,26.876,15.461,16.591,9.076,144.433-148.96,95.98-175.464-72.413-39.61-97.788-74.402-103.099-86.196,3.231-10.257,14.363-41.518,48.119-81.562,24.679-29.276,55.56-59.319,89.667-87.442" style="fill: #fdf151;"/>
        <path d="M31.48,1054.904c-1.131,0-2.143-.247-3.043-.74-9.147-5.003-18.228-10.227-26.99-15.525-.898-.544-1.447-1.518-1.447-2.567V492.59c0-.854.364-1.668,1.001-2.237,28.047-25.057,57.911-48.896,88.764-70.854,1.35-.961,3.224-.645,4.184.705.961,1.35.646,3.223-.705,4.184-30.305,21.57-59.651,44.964-87.243,69.547v540.443c8.239,4.955,16.748,9.837,25.316,14.523,2.465.804,16.301-7.392,41.238-37.177,22.348-26.692,41.911-56.896,52.332-80.792,8.348-19.145,15.043-43.746-.47-52.231-83.755-45.814-102.529-83.455-104.395-87.596-.303-.672-.348-1.432-.126-2.134,4.667-14.813,17.198-45.241,48.687-82.594,24.544-29.116,55.684-59.484,90.053-87.822,1.278-1.055,3.169-.873,4.223.406,1.055,1.278.872,3.169-.406,4.223-34.094,28.111-64.967,58.217-89.281,87.061-30.042,35.637-42.396,64.655-47.196,79.418,7.321,14.891,36.225,48.166,101.321,83.774,8.011,4.382,12.199,12.054,12.447,22.801.631,27.372-24.309,67.365-39.231,88.769-21.354,30.629-46.323,58.14-60.721,66.9-3.291,2.002-6.041,2.998-8.311,2.998Z" style="fill: #0b122d;"/>
      </g>
      <g>
        <path d="M118.875,859.197c-23.365-15.126-87.279,70.225-115.875,132.229v64.614c19.581,11.353,55.913,29.713,72.479,30.606-8.523-32.738,90.819-183.536,113.796-167.646-11.318-13.666-55.967-50.46-70.4-59.803Z" style="fill: #fff;"/>
        <path d="M75.479,1089.646c-.054,0-.107,0-.161-.004-17.704-.954-54.734-19.939-73.823-31.006-.926-.537-1.495-1.525-1.495-2.596v-64.614c0-.434.094-.862.275-1.257,12.443-26.979,31.589-58.462,51.215-84.216,12.646-16.595,36.631-45.236,55.189-50.614,5.391-1.561,10.041-1.11,13.825,1.339h0c15.001,9.712,59.518,46.447,71.08,60.409.956,1.153.913,2.836-.1,3.94-1.012,1.105-2.686,1.291-3.917.44-2.268-1.57-6.706-.201-12.495,3.845-16.186,11.318-41.989,43.488-64.21,80.051-22.73,37.401-35.479,69.01-32.481,80.526.241.927.025,1.912-.58,2.653-.571.7-1.426,1.103-2.323,1.103ZM6,1054.307c18.865,10.808,49.609,26.059,65.991,28.906-.916-22.002,25.242-66.974,33.746-80.966,22.965-37.789,48.832-69.917,65.898-81.852,3.741-2.616,7.128-4.312,10.142-5.082-15.882-15.972-51.854-45.392-64.533-53.599-2.29-1.484-5.2-1.685-8.894-.613-26.718,7.742-77.688,77.812-102.351,130.984v62.221Z" style="fill: #0b122d;"/>
      </g>
    </g>
    <g>
      <g>
        <path d="M235.305,947.144c63.309,20.504,91.003,55.404,86.534,86.687-3.195,22.364-42.271,45.59-53.927,40.524-22.955-9.976-13.984-30.771-13.984-30.771" style="fill: #f09c9a;"/>
        <path d="M271.919,1078.071c-1.875,0-3.643-.285-5.202-.964-25.405-11.04-15.646-34.476-15.544-34.711.656-1.522,2.422-2.222,3.943-1.566,1.521.656,2.223,2.422,1.566,3.943-.309.729-7.43,18.203,12.425,26.832,2.969,1.288,10.581.006,20.906-5.763,13.103-7.319,27.106-20.188,28.856-32.436,2.169-15.185-3.732-30.714-17.067-44.907-14.722-15.671-38.036-28.984-67.422-38.501-1.576-.511-2.439-2.202-1.93-3.779.511-1.576,2.204-2.434,3.779-1.93,30.346,9.828,54.532,23.695,69.945,40.102,14.627,15.568,21.07,32.812,18.634,49.864-2.18,15.258-18.53,29.373-31.87,36.825-4.224,2.36-13.478,6.99-21.021,6.99Z" style="fill: #0b122d;"/>
      </g>
      <g>
        <path d="M247.014,1010.053c42.658,20.549,61.112,55.399,49.74,78.127-10.109,20.203-49.488,32.211-61.144,27.146-22.955-9.976-13.984-30.771-13.984-30.771" style="fill: #f09c9a;"/>
        <path d="M242.946,1119.501c-3.386,0-6.309-.458-8.53-1.424-25.405-11.041-15.646-34.476-15.544-34.711.656-1.521,2.418-2.225,3.943-1.566,1.521.656,2.223,2.422,1.566,3.943-.309.729-7.43,18.202,12.425,26.832,10.299,4.473,47.791-6.803,57.266-25.738,3.722-7.438,3.96-16.435.688-26.019-6.251-18.312-24.587-36.278-49.048-48.062-1.493-.72-2.12-2.513-1.401-4.005.721-1.492,2.513-2.119,4.005-1.401,26.265,12.652,45.262,31.435,52.122,51.53,3.803,11.138,3.456,21.733-1.001,30.642-8.812,17.612-38.892,29.979-56.491,29.979Z" style="fill: #0b122d;"/>
      </g>
      <g>
        <path d="M217.88,1049.454c29.768,12.802,55.969,42.007,45.488,65.737-12.372,28.01-43.492,33.393-70.136,21.868-22.031-9.53-16.069-30.911-8.088-37.204l25.126,4.732-15.824-2.98" style="fill: #f09c9a;"/>
        <path d="M219.585,1145.648c-9.322,0-18.828-2.066-27.544-5.836-12.511-5.412-16.105-13.979-16.919-20.214-1.216-9.323,3.187-18.175,8.165-22.1.68-.537,1.559-.755,2.413-.593l9.28,1.748c.007,0,.014.003.021.004l15.823,2.98c1.628.307,2.699,1.875,2.393,3.504-.307,1.627-1.865,2.697-3.504,2.393l-23.674-4.459c-3.19,3.236-5.772,9.581-4.969,15.746.878,6.73,5.495,12.084,13.353,15.482,23.139,10.01,53.724,7.918,66.2-20.325,2.898-6.562,2.802-13.876-.287-21.739-6.106-15.541-23.236-31.254-43.643-40.03-1.521-.654-2.225-2.419-1.57-3.941.654-1.521,2.42-2.224,3.941-1.57,21.802,9.377,40.194,26.392,46.855,43.349,3.645,9.275,3.711,18.39.191,26.356-9.075,20.546-27.408,29.244-46.527,29.245Z" style="fill: #0b122d;"/>
      </g>
    </g>
  </g>
</svg>
